<?xml version="1.0" encoding="UTF-8"?>
<!DOCTYPE svg PUBLIC "-//W3C//DTD SVG 1.1//EN" "http://www.w3.org/Graphics/SVG/1.1/DTD/svg11.dtd">
<!-- Creator: CorelDRAW 2020 (64-Bit) -->
<svg xmlns="http://www.w3.org/2000/svg" xml:space="preserve" width="235.661mm" height="38.7018mm" version="1.1" style="shape-rendering:geometricPrecision; text-rendering:geometricPrecision; image-rendering:optimizeQuality; fill-rule:evenodd; clip-rule:evenodd"
viewBox="0 0 23566.1 3870.18"
 xmlns:xlink="http://www.w3.org/1999/xlink"
 xmlns:xodm="http://www.corel.com/coreldraw/odm/2003">
 <defs>
  <style type="text/css">
   <![CDATA[
    .fil1 {fill:#706F64}
    .fil0 {fill:#73A800}
   ]]>
  </style>
 </defs>
 <g id="Layer_x0020_1">
  <metadata id="CorelCorpID_0Corel-Layer"/>
  <g id="_855775104">
   <g id="_1887113827008">
    <path class="fil0" d="M1870.77 812.34l118.61 0 1025.02 0 0 380.85 223.07 0 0 -380.85 0 -442.66 417.3 0 0 442.66 417.3 0 0.82 0.91 670.29 -752.35 1794.6 0 135.74 0 11.7 0 1531.54 1719.1 -147.17 0 -1463.8 -1642.8 -2029.09 2277.25c-22.31,-0.3 -44.89,-0.3 -67.19,-0.3 -382.75,0 -769.85,19.9 -1155.32,63.02l-1424.09 -1598.18 -555.76 623.59c1.09,-12.36 1.36,-25.03 1.36,-37.69l0 -116.09 477.96 -536.45 17.14 0 -0.03 -0.01zm-885.47 1127.17l-263.33 295.51 0 -36.49c0,-35.88 -3.81,-70.87 -10.61,-104.33l136.29 -152.88 98.2 0c13.33,0 26.39,-0.6 39.44,-1.81l0.01 0zm6347.6 -941.72l-984.21 0 -1275.29 1431.12c301.96,15.98 604.73,44.92 905.32,88.95l1354.18 -1520.07z"/>
    <path class="fil1" d="M1923.27 1083.13l1274.74 1413.03c-60.66,7.53 -121.33,15.98 -181.72,25.03l-1102.27 -1222.16 -1061.47 1176.92 -185.8 0 1256.52 -1392.83 0 0.01z"/>
    <path class="fil1" d="M6641.94 308.77l483.4 536.14 -224.97 0 -268.77 -297.93 -1692.04 1875.6c-66.38,-2.72 -132.75,-4.53 -199.13,-6.03l1901.5 -2107.78 0.01 0zm754.07 835.87l1190.68 1319.85 -112.35 124.84 -1190.14 -1319.25 111.81 -125.45 0 0.01z"/>
    <path class="fil0" d="M8752.64 3688.76c-900.7,-675.15 -2464.34,-1121.74 -4243.16,-1121.74 -1843.56,0 -3456.17,480.06 -4338.91,1196.52 947.76,-410.4 2533.44,-679.38 4329.94,-679.38 1671.09,0 3159.93,232.79 4122.37,595.55 43.25,2.71 86.51,5.73 129.76,9.04l0 0.01z"/>
    <path class="fil0" d="M1643.89 2066.15l216.54 0 0 556.35 -216.54 0 0 -556.35zm307.94 0l216.54 0 0 556.35 -216.54 0 0 -556.35z"/>
    <path class="fil0" d="M6992.59 2066.15l216.54 0 0 556.35 -216.54 0 0 -556.35zm307.94 0l216.54 0 0 556.35 -216.54 0 0 -556.35z"/>
    <path class="fil0" d="M-0 1874.98l291.89 0c160.77,0 292.16,145.64 292.16,323.55l0 323.55 -292.16 0c-160.5,0 -291.89,-145.64 -291.89,-323.55l0 -323.55z"/>
    <path class="fil0" d="M-0 1141.33l291.89 0c160.77,0 292.16,145.64 292.16,323.55l0 323.56 -292.16 0c-160.5,0 -291.89,-145.65 -291.89,-323.56l0 -323.55z"/>
    <path class="fil0" d="M1237.75 1141.33l-291.89 0c-160.5,0 -291.89,145.64 -291.89,323.55l0 323.56 291.89 0c160.5,0 291.89,-145.65 291.89,-323.56l0 -323.55z"/>
    <path class="fil1" d="M599.02 1815.57l49.78 0 0 1450.73c-16.59,9.04 -33.19,18.39 -49.78,27.74l0 -1478.46 0 -0.01z"/>
    <path class="fil0" d="M9459.1 2232.01l-291.89 0c-160.5,0 -291.89,145.64 -291.89,323.55l0 323.85 291.89 0c160.5,0 291.89,-145.64 291.89,-323.55l0 -323.85z"/>
    <path class="fil0" d="M9459.1 1498.36l-291.89 0c-160.5,0 -291.89,145.64 -291.89,323.55l0 323.86 291.89 0c160.5,0 291.89,-145.65 291.89,-323.86l0 -323.55z"/>
    <path class="fil0" d="M8221.36 1498.36l291.89 0c160.77,0 292.16,145.64 292.16,323.55l0 323.86 -292.16 0c-160.5,0 -291.89,-145.65 -291.89,-323.86l0 -323.55z"/>
    <path class="fil1" d="M8860.09 2172.6l-49.51 0 0 1450.73c16.59,9.34 32.92,18.39 49.51,28.04l0 -1478.77z"/>
    <path class="fil0" d="M615.84 358.23l-206.4 224.77c-113.49,123.59 -111.83,327.75 3.7,453.55l210.09 228.79 206.39 -224.76c113.49,-123.6 111.83,-327.76 -3.69,-453.56l-210.09 -228.79z"/>
    <path class="fil0" d="M8835.57 694.38l-206.4 224.77c-113.49,123.59 -111.83,327.75 3.7,453.55l210.09 228.79 206.39 -224.76c113.49,-123.59 111.83,-327.75 -3.69,-453.56l-210.09 -228.79z"/>
   </g>
   <polygon class="fil1" points="12212.88,358.52 11613.05,358.52 10717.8,2209.97 9845.93,358.52 9222.43,358.52 10422.37,2772.26 9939.51,3695.81 10516.22,3695.81 "/>
   <polygon class="fil1" points="21573.74,2190.77 21209.84,2190.77 21209.84,358.17 21573.74,358.17 "/>
   <path class="fil0" d="M22054.57 3155.28l-214.99 0 0 160.27c0,150.92 -2.82,390.87 -209.7,390.87 -13.49,0 -28.27,-1.56 -41.47,-4.35l-29.76 -6.27 0 -113.83 42.95 6.32c7.24,1.06 15.27,2.05 22.57,2.05 15.02,0 30.92,-2.3 43.41,-11.27 27.79,-19.94 36.99,-73.46 41.17,-104.64 10.73,-80.03 9.04,-169.45 9.04,-250.29l0 -184.67 458.57 0 0 657.41 -121.79 0.03 0 -541.63zm-10380.08 111.06l274.35 -226.87 184.91 0 -380.89 312.76 404.99 344.66 -183.49 0 -299.87 -255.74 0 255.74 -121.79 0 0 -657.42 121.79 0 0 226.87zm4362.38 176.83l0 253.72 -121.79 0 0 -253.92 -270.56 253.92 -174.71 0 372.21 -344.77 -347.32 -312.65 175.36 0 245.02 223.7 0 -223.7 121.79 0 0 223.7 245.02 -223.7 175.69 0 -347.62 312.65 372.5 344.77 -176.16 0 -269.43 -253.72zm3894.24 -301.77c-129.93,0 -220.11,98.67 -220.11,226.92 0,129.71 87.94,226.64 220.11,226.64 133.44,0 219.84,-96.05 219.84,-226.64 0,-129.78 -88.14,-226.92 -219.84,-226.92zm-342.99 226.92c0,-197.11 145.28,-342.99 342.99,-342.99 197.9,0 342.72,146 342.72,342.99 0,192.01 -149.67,342.72 -342.72,342.72 -194.46,0 -342.99,-149.36 -342.99,-342.72zm-7098.75 -226.92c-129.82,0 -219.84,98.85 -219.84,226.92 0,129.54 87.78,226.64 219.84,226.64 133.58,0 219.84,-95.92 219.84,-226.64 0,-129.91 -87.99,-226.92 -219.84,-226.92zm0 569.64c-194.36,0 -342.72,-149.52 -342.72,-342.72 0,-197.08 144.96,-342.99 342.72,-342.99 198,0 342.99,145.83 342.99,342.99 0,192.18 -149.84,342.72 -342.99,342.72zm10079.28 -569.64c-129.82,0 -219.84,98.85 -219.84,226.92 0,129.68 87.63,226.64 219.84,226.64 133.58,0 219.84,-95.92 219.84,-226.64 0,-129.91 -87.99,-226.92 -219.84,-226.92zm0 569.64c-194.36,0 -342.72,-149.52 -342.72,-342.72 0,-197.08 144.96,-342.99 342.72,-342.99 198.05,0 342.72,145.87 342.72,342.99 0,192.15 -149.52,342.72 -342.72,342.72zm-7329.69 -555.76l-193.35 -0.01 -4.26 88.36c-5.48,113.65 -25.29,231.24 -76.48,333.92l274.09 0 0 -422.27zm73.73 541.62l-437.24 0 0 173.28 -119.61 0 0 -292.63 71.89 0c65.09,-90.77 88.43,-252.35 93.27,-356.24l8.47 -181.84 431.28 0 0 538.08 72.63 0 0 292.63 -120.69 0 0 -173.28zm-1075.63 -394.38l367.92 0c-11.61,-97.03 -70.26,-161.12 -179.06,-161.12 -108.69,0 -169.65,65.94 -188.86,161.12zm0.99 116.08c20.29,110.79 114.05,176.35 230.04,176.35 52.39,0 118.92,-15.92 167.66,-34.75l51.01 -19.71 0 127.63 -24.54 9.04c-64.04,23.58 -132,33.87 -200.12,33.87 -215.08,0 -352.24,-137.13 -352.24,-351.15 0,-188.9 123.7,-334.56 317.15,-334.56 200.99,0 303,132.54 303,325.31l0 67.97 -491.96 0zm6792.34 -474.96l0 -154.71 121.79 0 0 154.71 -121.79 0zm241.02 0l0 -154.71 121.79 0 0 154.71 -121.79 0zm-255.27 358.88l367.92 0c-11.61,-97.03 -70.26,-161.12 -179.06,-161.12 -108.69,0 -169.65,65.94 -188.86,161.12zm0.98 116.08c20.26,110.67 113.88,176.35 229.76,176.35 52.55,0 119.06,-15.87 167.94,-34.75l51.01 -19.71 0 127.69 -24.61 9.01c-64.24,23.5 -131.75,33.84 -200.05,33.84 -215.08,0 -352.24,-137.13 -352.24,-351.15 0,-188.9 123.7,-334.56 317.15,-334.56 200.99,0 303,132.54 303,325.31l0 67.97 -491.96 0zm2065.62 -152.26l274.35 -226.87 184.91 0 -380.89 312.76 404.99 344.66 -183.77 0 -299.59 -255.7 0 255.7 -121.79 0 0 -657.42 121.79 0 0 226.87zm-9249.2 -111.06l-0.01 541.62 -121.79 0 0 -541.62 -229.32 0 0 -115.8 580.44 0 0 115.8 -229.32 0zm-613.92 0l0 541.62 -121.79 0 0 -541.62 -229.05 0 0 -115.8 580.16 0 0 115.8 -229.32 0zm3760.33 253.8l-328.7 0 0 287.81 -121.79 0 0 -657.42 121.79 0 0 253.81 328.7 0 0 -253.81 121.79 0 0 657.42 -121.79 0 0 -287.81zm1450.35 -155.87l-336.98 443.68 -113.24 0 0 -657.42 121.79 0 0 452.88 343.78 -452.88 106.44 0 0 657.42 -121.79 0 0 -443.68zm-660.18 443.68l0 -657.42 121.79 0 0 657.42 -121.79 0zm-451.38 -307.67l0 191.86 182.3 0c63.39,0 115.93,-19.91 115.93,-91.17 0,-79.88 -55.59,-100.69 -125.18,-100.69l-173.05 0zm0.01 -115.81l189.37 0c130.2,0 231.73,79.75 231.73,215.14 0,137.17 -107.65,208.34 -236.35,208.34l-306.54 -0.01 0 -657.42 121.79 0 0 233.95zm2098.02 -118.14l-328.7 0 0 541.62 -121.79 0 0 -657.42 572.27 0 0 657.42 -121.78 0 0 -541.62zm1253.97 555.77c-201.43,0 -347.34,-141.44 -347.34,-342.72 0,-205.81 145.68,-342.99 349.79,-342.99 44.06,0 91,9.78 132.85,22.95l26.25 8.25 0 126.92 -50.58 -18.82c-35.03,-13.04 -62.05,-23.22 -100.36,-23.22 -140.34,0 -235.08,84.77 -235.08,226.92 0,141.16 99.09,226.64 238.61,226.64 35.67,0 69.92,-10.47 102.56,-24.05l51.91 -21.6 0 128.39 -26.3 8.23c-44.54,13.93 -95.67,25.1 -142.31,25.1z"/>
   <path class="fil1" d="M20127.08 1339.04l0 544.69 216.85 0c162.52,0 305.53,-91.85 305.53,-268.54 0,-194.52 -127.11,-276.15 -307.98,-276.15l-214.4 0zm0 -309.5l256.29 0c367.23,0 637.33,190.39 637.34,578.3 0.01,427.65 -282.15,582.92 -676.78,582.92l-580.75 0 0 -1832.6 363.9 0 0 671.38z"/>
   <path class="fil1" d="M17035.51 1468.64c-10.29,1.59 -20.44,2.97 -29.82,4.3 -38.35,5.46 -76.91,10 -115.42,14.16 -59.51,6.43 -128.13,14.89 -187.77,14.89 -462.46,0 -701.53,-161.51 -701.53,-652.02l0 -489.35 363.9 0 0 447.18c0,274.36 54.24,382.25 342.53,382.25 57.1,0 121.02,-6.87 178.01,-12.25 36.82,-3.48 73.69,-7.32 110.37,-12.08 12,-1.56 26.12,-3.19 39.73,-5.41l0 -802.14 363.9 0 0 1832.61 -363.9 0 0 -722.14z"/>
   <polygon class="fil1" points="23182.36,912.13 22341.56,2190.77 21962.84,2190.77 21962.84,358.17 22326.74,358.17 22326.74,1642.42 23177.68,358.17 23546.25,358.17 23546.26,2190.77 23182.36,2190.77 "/>
   <polygon class="fil1" points="19010.46,1398.34 18154.57,1398.34 18154.57,2190.77 17790.67,2190.77 17790.67,358.17 18154.57,358.17 18154.57,1086.4 19010.46,1086.4 19010.46,358.17 19374.36,358.17 19374.36,2190.77 19010.46,2190.77 "/>
   <path class="fil1" d="M13411.77 1878.83l0 -1208.72 -451.18 0 -26.97 348.15c-13.32,171.9 -37.09,345.5 -74.27,513.91 -25.01,113.36 -58.35,237.31 -106.28,346.66l658.7 0zm209.73 311.94l-1117.32 0 0 414.85 -346.49 0 0 -726.79 194.6 0c118.35,-157.52 183.68,-530.1 206.84,-714.66 9.39,-74.81 16.43,-149.99 20.82,-225.26l33.89 -580.74 1159.38 0 0 1520.66 195.05 0 0 726.79 -346.77 0 0 -414.85z"/>
   <path class="fil1" d="M15351.83 1456.64l-267.32 -710.65 -275.54 710.65 542.86 0zm112.29 302.14l-768.31 0 -167.84 431.99 -380.33 0 754.19 -1832.6 376.19 0 749.1 1832.6 -395.16 0 -167.84 -431.99z"/>
   <rect class="fil1" x="22471.25" y="-0.01" width="613.87" height="264.57"/>
   <rect class="fil0" x="18113.57" y="2794" width="304.26" height="153.45"/>
  </g>
 </g>
</svg>
