<?xml version="1.0" encoding="UTF-8"?>
<!DOCTYPE svg PUBLIC "-//W3C//DTD SVG 1.1//EN" "http://www.w3.org/Graphics/SVG/1.1/DTD/svg11.dtd">
<!-- Creator: CorelDRAW X7 -->
<svg xmlns="http://www.w3.org/2000/svg" xml:space="preserve" width="28.5863mm" height="16.792mm" version="1.1" style="shape-rendering:geometricPrecision; text-rendering:geometricPrecision; image-rendering:optimizeQuality; fill-rule:evenodd; clip-rule:evenodd"
viewBox="0 0 1242 730"
 xmlns:xlink="http://www.w3.org/1999/xlink">
 <defs>
  <style type="text/css">
   <![CDATA[
    .str1 {stroke:#706F64;stroke-width:8.69172}
    .str0 {stroke:#706F64;stroke-width:5.90603}
    .fil1 {fill:#706F64}
    .fil0 {fill:#73A800}
    .fil2 {fill:#706F64;fill-rule:nonzero}
    .fil3 {fill:#73A800;fill-rule:nonzero}
   ]]>
  </style>
 </defs>
 <g id="Layer_x0020_1">
  <metadata id="CorelCorpID_0Corel-Layer"/>
  <g id="_775022672">
   <path class="fil0" d="M246 89l15 0 135 0 0 45 29 0 0 -45 0 -52 55 0 0 52 55 0 0 0 88 -89 236 0 17 0 2 0 201 204 -19 0 -192 -195 -267 270c-3,0 -6,0 -9,0 -50,0 -101,2 -151,7l-188 -189 -72 74c0,-2 0,-3 0,-5l0 -13 62 -64 3 0zm-117 134l-34 35 0 -5c0,-4 -1,-8 -2,-12l18 -18 13 0c2,0 4,0 5,0zm834 -112l-129 0 -168 170c40,1 80,5 119,10l178 -180z"/>
   <path class="fil1" d="M253 121l167 168c-8,0 -16,1 -24,2l-145 -144 -139 139 -24 0 165 -165z"/>
   <path class="fil1" d="M872 29l64 64 -30 0 -35 -35 -222 222c-9,0 -18,-1 -26,-1l249 -250zm99 99l157 157 -15 15 -156 -157 14 -15z"/>
   <path class="fil0" d="M1150 430c-119,-80 -324,-133 -558,-133 -242,0 -454,57 -570,142 125,-49 333,-81 569,-81 220,0 415,28 541,71 6,0 12,0 18,1z"/>
   <path class="fil0" d="M216 238l28 0 0 65 -28 0 0 -65zm40 0l29 0 0 65 -29 0 0 -65z"/>
   <path class="fil0" d="M918 238l29 0 0 65 -29 0 0 -65zm41 0l28 0 0 65 -28 0 0 -65z"/>
   <path class="fil0" d="M0 215l38 0c21,0 39,17 39,38l0 39 -39 0c-21,0 -38,-18 -38,-39l0 -38z"/>
   <path class="fil0" d="M0 128l38 0c21,0 39,17 39,38l0 39 -39 0c-21,0 -38,-18 -38,-39l0 -38z"/>
   <path class="fil0" d="M163 128l-39 0c-21,0 -38,17 -38,38l0 39 38 0c21,0 39,-18 39,-39l0 -38z"/>
   <path class="fil1" d="M79 208l6 0 0 172c-2,1 -4,2 -6,3l0 -175z"/>
   <path class="fil0" d="M1242 257l-38 0c-21,0 -38,17 -38,39l0 38 38 0c21,0 38,-17 38,-38l0 -39z"/>
   <path class="fil0" d="M1242 170l-38 0c-21,0 -38,18 -38,39l0 38 38 0c21,0 38,-17 38,-38l0 -39z"/>
   <path class="fil0" d="M1080 170l38 0c21,0 38,18 38,39l0 38 -38 0c-21,0 -38,-17 -38,-38l0 -39z"/>
   <path class="fil1" d="M1164 250l-7 0 0 172c2,1 4,2 7,3l0 -175z"/>
  </g>
  <g id="_775028528">
   <path class="fil2 str0" d="M1131 601l0 -133 -24 0 -68 103 0 0 0 -103 -22 0 0 133 24 0 67 -102 1 0 0 102 22 0zm-30 -160l-13 -3c-2,8 -7,12 -15,12 -7,0 -13,-4 -15,-12l-12 3c3,14 13,23 28,23 14,0 23,-9 27,-23zm-183 119c0,16 -14,24 -26,24l-19 0 0 -47 19 0c13,0 26,6 26,23zm22 0c0,-28 -19,-41 -45,-41l-22 0 0 -51 -22 0 0 133 41 0c30,0 48,-12 48,-41zm42 41l0 -133 -22 0 0 133 22 0zm-166 0l0 -133 -22 0 0 55 -70 0 0 -55 -22 0 0 133 22 0 0 -60 70 0 0 60 22 0zm-149 0l0 -133 -22 0 0 60c-4,1 -23,3 -28,3 -23,0 -29,-8 -29,-32l0 -31 -21 0 0 35c0,37 19,46 50,46 4,0 24,-2 28,-3l0 55 22 0zm-148 -50l-49 0 24 -64 1 0 24 64zm42 50l-54 -133 -24 0 -55 133 23 0 12 -33 62 0 13 33 23 0zm-190 -18l-57 0c8,-15 13,-41 15,-68l2 -29 40 0 0 97zm36 49l0 -49 -14 0 0 -115 -82 0 -3 42c-2,28 -9,61 -19,73l-13 0 0 49 21 0 0 -31 90 0 0 31 20 0z"/>
   <polygon class="fil3" points="278,462 232,462 165,602 99,462 52,462 142,644 106,714 149,714 "/>
   <path class="fil2 str1" d="M231 712l3 0 0 -22 27 22 5 0 -28 -23 26 -21 -5 0 -25 21 0 -21 -3 0 0 44zm59 1c14,0 23,-10 23,-23 0,-12 -9,-23 -23,-23 -14,0 -23,10 -23,23 0,13 9,23 23,23zm0 -43c12,0 20,9 20,20 0,11 -8,20 -20,20 -12,0 -19,-9 -19,-20 0,-11 8,-20 19,-20zm46 1l18 0 0 -3 -38 0 0 3 17 0 0 41 3 0 0 -41zm38 0l17 0 0 -3 -38 0 0 3 17 0 0 41 4 0 0 -41zm23 20l37 0 0 -2c0,-13 -6,-22 -20,-22 -12,0 -21,9 -21,23 0,13 8,23 24,23 6,0 11,-1 14,-2l0 -4c-4,2 -9,3 -14,3 -10,0 -20,-6 -20,-19zm17 -21c10,0 17,7 17,18l-34 0c0,-10 6,-18 17,-18zm66 55l3 0 0 -16 -5 0 0 -41 -27 0 -1 11c0,15 -4,25 -8,30l-4 0 0 16 3 0 0 -13 39 0 0 13zm-6 -54l0 38 -28 0c5,-8 7,-18 8,-28l0 -10 20 0zm71 41l-25 -23 23 -21 -4 0 -23 21 0 -21 -3 0 0 21 -23 -21 -5 0 23 21 -25 23 5 0 25 -23 0 23 3 0 0 -23 24 23 5 0zm38 0l4 0 0 -44 -4 0 0 20 -30 0 0 -20 -4 0 0 44 4 0 0 -21 30 0 0 21zm57 0l4 0 0 -44 -4 0 0 44zm-23 0c9,0 15,-5 15,-13 0,-8 -6,-13 -14,-13l-18 0 0 -18 -3 0 0 44 20 0zm-1 -23c6,0 13,2 13,11 0,7 -6,9 -12,9l-17 0 0 -20 16 0zm67 -39l-3 -1c-1,3 -4,6 -8,6 -4,0 -6,-3 -8,-6l-3 1c2,5 5,8 11,8 6,0 9,-3 11,-8zm8 62l0 -44 -4 0 -30 40 0 0 0 -40 -3 0 0 44 4 0 29 -39 1 0 0 39 3 0zm69 0l3 0 0 -44 -37 0 0 44 3 0 0 -41 31 0 0 41zm34 1c14,0 23,-10 23,-23 0,-12 -9,-23 -23,-23 -14,0 -23,10 -23,23 0,13 9,23 23,23zm0 -43c11,0 19,9 19,20 0,11 -7,20 -19,20 -12,0 -20,-9 -20,-20 0,-11 9,-20 20,-20zm52 43c3,0 7,0 10,-1l0 -4c-2,1 -5,2 -9,2 -14,0 -21,-9 -21,-20 0,-11 8,-20 21,-20 3,0 6,1 9,2l0 -3c-3,-1 -6,-2 -10,-2 -14,0 -23,10 -23,23 0,13 8,23 23,23zm26 -58l4 0 0 -6 -4 0 0 6zm19 0l3 0 0 -6 -3 0 0 6zm-26 36l38 0 0 -2c0,-13 -7,-22 -20,-22 -12,0 -21,9 -21,23 0,13 8,23 23,23 7,0 11,-1 15,-2l0 -4c-4,2 -10,3 -14,3 -10,0 -20,-6 -21,-19zm18 -21c10,0 16,7 16,18l-34 0c1,-10 7,-18 18,-18zm60 42l3 0 0 -44 -29 0 0 11c0,21 0,31 -9,31 -1,0 -2,0 -3,0l0 3c1,0 2,0 3,0 12,0 13,-14 13,-27l0 -15 22 0 0 41zm34 1c14,0 23,-10 23,-23 0,-12 -9,-23 -23,-23 -14,0 -23,10 -23,23 0,13 9,23 23,23zm0 -43c11,0 19,9 19,20 0,11 -7,20 -19,20 -12,0 -19,-9 -19,-20 0,-11 8,-20 19,-20zm31 42l4 0 0 -22 26 22 5 0 -27 -23 25 -21 -5 0 -24 21 0 -21 -4 0 0 44z"/>
  </g>
 </g>
</svg>
